/* XPM */
static char * gnome_mplayer_xpm[] = {
"48 48 375 2",
"  	c None",
". 	c #353535",
"+ 	c #333333",
"@ 	c #353738",
"# 	c #373737",
"$ 	c #343434",
"% 	c #626262",
"& 	c #646464",
"* 	c #656565",
"= 	c #A5C2E1",
"- 	c #6A6A6A",
"; 	c #666666",
"> 	c #A9A9A8",
", 	c #729FCF",
"' 	c #6B6B6B",
") 	c #ACACAB",
"! 	c #636363",
"~ 	c #EEEEEC",
"{ 	c #676767",
"] 	c #6C6C6C",
"^ 	c #6D6D6D",
"/ 	c #AAAAA9",
"( 	c #686868",
"_ 	c #6E6E6E",
": 	c #AEAEAD",
"< 	c #ADADAC",
"[ 	c #696969",
"} 	c #6F6F6F",
"| 	c #709DCD",
"1 	c #707070",
"2 	c #ABABAA",
"3 	c #6D9ACB",
"4 	c #AFAFAE",
"5 	c #6A97C9",
"6 	c #717171",
"7 	c #6795C7",
"8 	c #727272",
"9 	c #6492C5",
"0 	c #6592C5",
"a 	c #6C90B6",
"b 	c #7B8FA2",
"c 	c #7E7F7B",
"d 	c #8A8C88",
"e 	c #898B86",
"f 	c #8C8D88",
"g 	c #618FC3",
"h 	c #638FC1",
"i 	c #748CA4",
"j 	c #878B88",
"k 	c #9EA1A0",
"l 	c #CCCECB",
"m 	c #E6E7E5",
"n 	c #EEEFED",
"o 	c #F5F6F4",
"p 	c #CDCECB",
"q 	c #A1A29E",
"r 	c #888B85",
"s 	c #5E8DC1",
"t 	c #6A8AAB",
"u 	c #858A89",
"v 	c #B1B4B3",
"w 	c #F6F6F5",
"x 	c #F3F3F2",
"y 	c #F1F1EF",
"z 	c #EFEFEE",
"A 	c #B4B6B3",
"B 	c #888A84",
"C 	c #5C8ABF",
"D 	c #5D8ABE",
"E 	c #73899E",
"F 	c #929694",
"G 	c #E7E8E6",
"H 	c #F5F5F4",
"I 	c #F0F0EF",
"J 	c #949692",
"K 	c #858783",
"L 	c #5987BD",
"M 	c #5A87BC",
"N 	c #788896",
"O 	c #A4A7A6",
"P 	c #F2F2F1",
"Q 	c #F2F2F0",
"R 	c #A7A8A5",
"S 	c #878884",
"T 	c #5685BB",
"U 	c #6E859C",
"V 	c #A2A5A4",
"W 	c #E2E2E0",
"X 	c #CFCFCD",
"Y 	c #D4D4D2",
"Z 	c #E5E5E3",
"` 	c #A5A6A3",
" .	c #838580",
"..	c #4C4D4B",
"+.	c #8C8E89",
"@.	c #F1F1F0",
"#.	c #F0F0EE",
"$.	c #628C35",
"%.	c #7F9D5E",
"&.	c #C1C5BA",
"*.	c #D5D5D3",
"=.	c #E6E6E4",
"-.	c #8F918C",
";.	c #90AED1",
">.	c #8FACCE",
",.	c #808483",
"'.	c #E4E4E3",
").	c #CCCCCB",
"!.	c #42770C",
"~.	c #8FB260",
"{.	c #4F811B",
"].	c #7F817D",
"^.	c #4D7DB5",
"/.	c #657E98",
"(.	c #A8ABAA",
"_.	c #F4F4F3",
":.	c #CDCDCC",
"<.	c #C4DB95",
"[.	c #BAD48A",
"}.	c #8BAF5B",
"|.	c #4E801A",
"1.	c #ABACA9",
"2.	c #4A7AB3",
"3.	c #4A7AB2",
"4.	c #787D7A",
"5.	c #E9E9E8",
"6.	c #BAD486",
"7.	c #9EC253",
"8.	c #ACCB6D",
"9.	c #B6D184",
"0.	c #87AC55",
"a.	c #4E7F1A",
"b.	c #C0C4B9",
"c.	c #D3D3D1",
"d.	c #7B7D78",
"e.	c #4777B1",
"f.	c #5277A2",
"g.	c #8D918F",
"h.	c #B6D180",
"i.	c #9AC04F",
"j.	c #9BC151",
"k.	c #A9CA6A",
"l.	c #B2CE7F",
"m.	c #83A950",
"n.	c #4C7E18",
"o.	c #7D9C5D",
"p.	c #BEC2B8",
"q.	c #91928E",
"r.	c #4574AF",
"s.	c #63788E",
"t.	c #C0C1BE",
"u.	c #B2CE7B",
"v.	c #98BD4D",
"w.	c #99BE4F",
"x.	c #A7C767",
"y.	c #AECB79",
"z.	c #7FA64A",
"A.	c #7E9D5F",
"B.	c #BFC3B9",
"C.	c #C1C2BE",
"D.	c #797A77",
"E.	c #4272AD",
"F.	c #717B83",
"G.	c #DBDCDA",
"H.	c #EDEDEB",
"I.	c #EBEBE9",
"J.	c #C9C9C7",
"K.	c #AECB75",
"L.	c #95BB4A",
"M.	c #96BC4C",
"N.	c #A4C564",
"O.	c #ABC874",
"P.	c #7CA346",
"Q.	c #4B7D16",
"R.	c #C3C8BE",
"S.	c #D6D6D4",
"T.	c #E3E3E1",
"U.	c #7C7E79",
"V.	c #3F6FAB",
"W.	c #71787A",
"X.	c #E2E3E1",
"Y.	c #E6E7E4",
"Z.	c #C3C4C2",
"`.	c #ABC870",
" +	c #93B848",
".+	c #94B94A",
"++	c #A2C261",
"@+	c #A7C46E",
"#+	c #79A142",
"$+	c #4C7D17",
"%+	c #82A061",
"&+	c #CACEC3",
"*+	c #DCDDDB",
"=+	c #E4E5E2",
"-+	c #777974",
";+	c #3C6CA9",
">+	c #707371",
",+	c #E2E2E1",
"'+	c #C1C1BF",
")+	c #A6C46A",
"!+	c #90B545",
"~+	c #91B647",
"{+	c #9EBF5D",
"]+	c #A2C068",
"^+	c #769F3F",
"/+	c #95AF7B",
"(+	c #E1E1E0",
"_+	c #71736F",
":+	c #396AA7",
"<+	c #6E716F",
"[+	c #DFDFDC",
"}+	c #DEDEDB",
"|+	c #BFBFBC",
"1+	c #A1C063",
"2+	c #8DB342",
"3+	c #8EB444",
"4+	c #9ABC58",
"5+	c #9DBD61",
"6+	c #729C3B",
"7+	c #4D7E18",
"8+	c #9AB27E",
"9+	c #E7E7E5",
"0+	c #6F716D",
"a+	c #3667A5",
"b+	c #6B7274",
"c+	c #D8D8D6",
"d+	c #DBDBD9",
"e+	c #D9D9D7",
"f+	c #BFBFBD",
"g+	c #9DBC5E",
"h+	c #8BB040",
"i+	c #8CB142",
"j+	c #96B853",
"k+	c #98B95B",
"l+	c #719A38",
"m+	c #4B7D17",
"n+	c #89A769",
"o+	c #D9DED3",
"p+	c #DCDCDA",
"q+	c #3465A4",
"r+	c #667179",
"s+	c #CACAC7",
"t+	c #D9D9D6",
"u+	c #D5D5D2",
"v+	c #98B957",
"w+	c #88AE3D",
"x+	c #89AF3E",
"y+	c #92B54D",
"z+	c #94B556",
"A+	c #6E9836",
"B+	c #88A668",
"C+	c #D7DCD0",
"D+	c #E4E4E2",
"E+	c #D6D6D3",
"F+	c #72746F",
"G+	c #546982",
"H+	c #A8AAA7",
"I+	c #D0D0CE",
"J+	c #C2C2C1",
"K+	c #94B552",
"L+	c #86AB3B",
"M+	c #87AB3C",
"N+	c #8EB148",
"O+	c #90B14F",
"P+	c #6D9633",
"Q+	c #87A567",
"R+	c #D4D9CE",
"S+	c #D2D2D0",
"T+	c #A9AAA7",
"U+	c #6B6D69",
"V+	c #406695",
"W+	c #787B7C",
"X+	c #CCCCC9",
"Y+	c #C8C8C6",
"Z+	c #8FB14B",
"`+	c #83A938",
" @	c #83A939",
".@	c #89AD42",
"+@	c #8AAD48",
"@@	c #6A9430",
"#@	c #4C7E17",
"$@	c #86A465",
"%@	c #D2D7CB",
"&@	c #DFDFDD",
"*@	c #CFCFCC",
"=@	c #7C7C7A",
"-@	c #3465A3",
";@	c #646968",
">@	c #C8C9C6",
",@	c #CBCCC9",
"'@	c #C7C8C5",
")@	c #CDCECC",
"!@	c #8AAD45",
"~@	c #80A635",
"{@	c #85AA3D",
"]@	c #85AA42",
"^@	c #68922C",
"/@	c #85A364",
"(@	c #CFD5C9",
"_@	c #D6D7D5",
":@	c #676965",
"<@	c #4C6684",
"[@	c #878A89",
"}@	c #C3C3C0",
"|@	c #87AA41",
"1@	c #80A63B",
"2@	c #659029",
"3@	c #84A263",
"4@	c #CDD2C6",
"5@	c #DADAD8",
"6@	c #C8C8C5",
"7@	c #8A8B88",
"8@	c #333537",
"9@	c #61635F",
"0@	c #B9B9B6",
"a@	c #C4C5C2",
"b@	c #BEBFBB",
"c@	c #D7D8D6",
"d@	c #628E25",
"e@	c #4A7C16",
"f@	c #82A162",
"g@	c #CAD0C4",
"h@	c #CFD0CD",
"i@	c #C4C5C1",
"j@	c #646662",
"k@	c #6B6D68",
"l@	c #C2C2C0",
"m@	c #BEBEBB",
"n@	c #BABAB7",
"o@	c #618B35",
"p@	c #81A061",
"q@	c #C8CDC1",
"r@	c #5C5D58",
"s@	c #777975",
"t@	c #C2C3BF",
"u@	c #B9BAB6",
"v@	c #C1C2BF",
"w@	c #D0D1CE",
"x@	c #B6B7B4",
"y@	c #B5B6B2",
"z@	c #5A5E57",
"A@	c #5B5D59",
"B@	c #757772",
"C@	c #B8B8B5",
"D@	c #B7B7B4",
"E@	c #B1B1AE",
"F@	c #747672",
"G@	c #5A5C58",
"H@	c #525350",
"I@	c #A6A7A4",
"J@	c #B7B8B4",
"K@	c #B0B0AD",
"L@	c #ACADA9",
"M@	c #4F514E",
"N@	c #595B57",
"O@	c #757673",
"P@	c #A8A9A6",
"Q@	c #B3B4B0",
"R@	c #AFB0AC",
"S@	c #AAABA7",
"T@	c #A9AAA6",
"U@	c #484B46",
"V@	c #565855",
"W@	c #636561",
"X@	c #848682",
"Y@	c #9A9B97",
"Z@	c #A3A5A1",
"`@	c #626560",
" #	c #464A45",
".#	c #4E504D",
"+#	c #575956",
"@#	c #585956",
"##	c #565854",
"$#	c #575955",
"%#	c #4E4F4C",
"                                                                                                ",
"                                                                                                ",
"                                                                                                ",
"                                                                                                ",
"      . + + + + @ + + + + + + + + + + + + + + + + + + @ + + + + #                               ",
"      $ % & * * + = = = = = = = = = = = = = = = = = = + - - - ; .                               ",
"      $ % > > ; + , , , , , , , , , , , , , , , , , , + ' ) ) ' +                               ",
"      $ ! ~ ~ { + , , , , , , , , , , , , , , , , , , + ] ~ ~ ] +                               ",
"      $ ! ; { { + , , , , , , , , , , , , , , , , , , + ^ ^ ^ ] +                               ",
"      $ & / / ( + , , , , , , , , , , , , , , , , , , + _ : < ^ +                               ",
"      $ * ~ ~ [ + , , , , , , , , , , , , , , , , , , + } ~ ~ _ +                               ",
"      $ * ( [ [ + | | | | | | | | | | | | | | | | | | + 1 } } } +                               ",
"      $ ; 2 2 - + 3 3 3 3 3 3 3 3 3 3 3 3 3 3 3 3 3 3 + 1 4 4 1 +                               ",
"      $ ; ~ ~ ' + 5 5 5 5 5 5 5 5 5 5 5 5 5 5 5 5 5 5 + 6 ~ ~ 6 +                               ",
"      $ { - - ' + 7 7 7 7 7 7 7 7 7 7 7 7 7 7 7 7 7 7 + 8 8 8 6 +                               ",
"      $ ( ) ) ] + 9 9 9 9 9 9 9 9 9 9 9 9 9 9 9 0 a b c d e e d c f                             ",
"      $ ( ~ ~ ] + g g g g g g g g g g g g g h i j k l m n o o n m p q r                         ",
"      $ [ ' ] ^ + s s s s s s s s s s s s t u v ~ w x y z ~ ~ z y x w ~ A B                     ",
"      $ [ < < ^ + C C C C C C C C C C D E F G H I ~ ~ ~ ~ ~ ~ ~ ~ ~ ~ I H G J K                 ",
"      $ [ ~ ~ _ + L L L L L L L L L M N O P Q ~ ~ ~ ~ ~ ~ ~ ~ ~ ~ ~ ~ ~ ~ Q P R S               ",
"      $ - ^ _ _ + T T T T T T T T T U V H I W X Y Z ~ ~ ~ ~ ~ ~ ~ ~ ~ ~ ~ ~ I H `  .            ",
"      $ - < : } + + + + + + + + + ..+.@.#.~ X $.%.&.*.=.~ ~ ~ ~ ~ ~ ~ ~ ~ ~ ~ #.@.-.            ",
"      $ ' ~ ~ } + ;.;.;.;.;.;.;.>.,.'.@.~ ~ ).!.~.{.%.&.*.=.~ ~ ~ ~ ~ ~ ~ ~ ~ ~ @.'.].          ",
"      $ ' _ } 1 + ^.^.^.^.^.^.^./.(._.~ ~ ~ :.!.<.[.}.|.%.&.*.=.~ ~ ~ ~ ~ ~ ~ ~ ~ _.1.          ",
"      $ ' : : 1 + 2.2.2.2.2.2.3.4.5.#.~ ~ ~ :.!.6.7.8.9.0.a.%.b.c.=.~ ~ ~ ~ ~ ~ ~ #.5.d.        ",
"      $ ' ~ ~ 1 + e.e.e.e.e.e.f.g._.~ ~ ~ ~ ).!.h.i.i.j.k.l.m.n.o.p.c.Z ~ ~ ~ ~ ~ ~ _.q.        ",
"      $ ] } 1 6 + r.r.r.r.r.r.s.t.Q ~ ~ ~ ~ ).!.u.v.v.v.v.w.x.y.z.n.A.B.*.Z ~ ~ ~ ~ Q C.D.      ",
"      $ ] : 4 6 + E.E.E.E.E.E.F.G.H.I.I.I.I.J.!.K.L.L.L.L.L.L.M.N.O.P.Q.%.R.S.T.I.I.H.G.U.      ",
"      $ ] ~ ~ 6 + V.V.V.V.V.V.W.X.G Y.Y.Y.Y.Z.!.`. + + + + + + + +.+++@+#+$+%+&+*+=+G X.-+      ",
"      $ ] } 1 6 + ;+;+;+;+;+;+>+5.,+W W W W '+!.)+!+!+!+!+!+!+!+!+!+!+~+{+]+^+n./+(+,+5._+      ",
"      $ ] : 4 6 + :+:+:+:+:+:+<+=.[+}+}+}+}+|+!.1+2+2+2+2+2+2+2+2+2+2+3+4+5+6+7+8+9+[+=.0+      ",
"      $ ] ~ ~ 6 + a+a+a+a+a+a+b+c+d+e+e+e+e+f+!.g+h+h+h+h+h+h+h+h+i+j+k+l+m+n+o+9+p+d+c+_+      ",
"      $ ] } 1 6 + q+q+q+q+q+q+r+s+t+u+u+u+u+f+!.v+w+w+w+w+w+w+x+y+z+A+$+B+C+D+}+E+u+t+s+F+      ",
"      $ ] : 4 6 + q+q+q+q+q+q+G+H+c+I+I+I+I+J+!.K+L+L+L+L+M+N+O+P+$+Q+R+,+d+S+I+I+I+c+T+U+      ",
"      $ ] ~ ~ 6 + q+q+q+q+q+q+V+W+c+X+X+X+X+Y+!.Z+`+`+ @.@+@@@#@$@%@&@e+*@X+X+X+X+X+c+=@        ",
"      $ ] } 1 6 + q+q+q+q+q+q+-@;@>@,@'@'@'@)@!.!@~@{@]@^@#@/@(@*+_@,@'@'@'@'@'@'@,@>@:@        ",
"      $ ^ } 1 6 + q+q+q+q+q+q+q+<@[@*@}@}@}@*.!.|@1@2@$+3@4@5@*.6@}@}@}@}@}@}@}@}@*@7@          ",
"      $ + + + + 8@+ + + + + + + $ 9@0@a@b@b@c@!.d@e@f@g@c@h@i@b@b@b@b@b@b@b@b@b@a@0@j@          ",
"                                    k@l@m@n@c.o@p@q@Y J.m@n@n@n@n@n@n@n@n@n@n@m@l@U+            ",
"                                    r@s@t@u@v@w@,@v@x@y@y@y@y@y@y@y@y@y@y@y@u@t@s@z@            ",
"                                      A@B@C@D@E@E@E@E@E@E@E@E@E@E@E@E@E@E@D@C@F@G@              ",
"                                        H@j@I@J@K@L@L@L@L@L@L@L@L@L@L@K@J@I@j@M@                ",
"                                            N@O@P@Q@R@1.S@T@T@S@1.R@Q@P@O@N@                    ",
"                                              U@V@W@X@Y@Z@L@L@Z@Y@X@`@V@ #                      ",
"                                                    .#+#@#####@#$#%#                            ",
"                                                                                                ",
"                                                                                                ",
"                                                                                                "};
