/* XPM */
static char * gnome_mplayer_xpm[] = {
"48 48 176 2",
"  	c None",
". 	c #313131",
"+ 	c #5A5A5A",
"@ 	c #4B4B4B",
"# 	c #575757",
"$ 	c #1A1A1A",
"% 	c #030303",
"& 	c #000000",
"* 	c #020202",
"= 	c #0C0C0C",
"- 	c #2B2B2B",
"; 	c #0E0E0E",
"> 	c #171717",
", 	c #474747",
"' 	c #050505",
") 	c #010101",
"! 	c #3A3A3A",
"~ 	c #1F1F1F",
"{ 	c #1D1D1D",
"] 	c #4D4D4D",
"^ 	c #404040",
"/ 	c #040404",
"( 	c #191919",
"_ 	c #090909",
": 	c #424242",
"< 	c #555555",
"[ 	c #252525",
"} 	c #2D2D2D",
"| 	c #535353",
"1 	c #434343",
"2 	c #0D0D0D",
"3 	c #060606",
"4 	c #282828",
"5 	c #232323",
"6 	c #141414",
"7 	c #4C4C4C",
"8 	c #464646",
"9 	c #161616",
"0 	c #3D3D3D",
"a 	c #080808",
"b 	c #2C2C2C",
"c 	c #0A0A0A",
"d 	c #0F0F0F",
"e 	c #151515",
"f 	c #3C3C3C",
"g 	c #181818",
"h 	c #414141",
"i 	c #2E2E2E",
"j 	c #272727",
"k 	c #212121",
"l 	c #3B3B3B",
"m 	c #565656",
"n 	c #5C5C5C",
"o 	c #222222",
"p 	c #101010",
"q 	c #363636",
"r 	c #414047",
"s 	c #55506E",
"t 	c #675E8F",
"u 	c #675C94",
"v 	c #605689",
"w 	c #524B6C",
"x 	c #302F36",
"y 	c #010102",
"z 	c #595959",
"A 	c #56516B",
"B 	c #473A7E",
"C 	c #4B3E80",
"D 	c #8077A7",
"E 	c #9C94BB",
"F 	c #4C4080",
"G 	c #43377A",
"H 	c #524C67",
"I 	c #544F69",
"J 	c #3E3178",
"K 	c #9189B3",
"L 	c #D2CFD7",
"M 	c #FBFAFB",
"N 	c #FFFFFF",
"O 	c #F4F2F8",
"P 	c #9891B7",
"Q 	c #3F3279",
"R 	c #4B4562",
"S 	c #494949",
"T 	c #2F2E35",
"U 	c #43367B",
"V 	c #968EB6",
"W 	c #FDFCFE",
"X 	c #5D5D5E",
"Y 	c #C6C6C6",
"Z 	c #FEFDFF",
"` 	c #A19ABD",
" .	c #44377A",
"..	c #27252F",
"+.	c #505050",
"@.	c #514C6B",
"#.	c #504583",
"$.	c #5B5B5A",
"%.	c #D6D6D6",
"&.	c #F8F7FA",
"*.	c #584C8C",
"=.	c #353961",
"-.	c #5A5187",
";.	c #8B83AF",
">.	c #5B5B5B",
",.	c #6E6E6E",
"'.	c #E6E6E6",
").	c #988FB5",
"!.	c #242154",
"~.	c #393939",
"{.	c #3E3176",
"].	c #A69EC2",
"^.	c #000001",
"/.	c #A1A1A2",
"(.	c #AAA3C3",
"_.	c #261E4F",
":.	c #948CB5",
"<.	c #696969",
"[.	c #E5E5E5",
"}.	c #9A91B5",
"|.	c #271E4D",
"1.	c #1C1538",
"2.	c #5A4F8B",
"3.	c #FAF8FC",
"4.	c #414142",
"5.	c #CBCBCB",
"6.	c #FBFBFD",
"7.	c #625692",
"8.	c #1D1739",
"9.	c #262626",
"0.	c #050409",
"a.	c #372A6F",
"b.	c #A9A3C2",
"c.	c #FFFEFF",
"d.	c #7F7F7F",
"e.	c #ABABAB",
"f.	c #FBFBFB",
"g.	c #FEFFFF",
"h.	c #B6AFCB",
"i.	c #382B6F",
"j.	c #171520",
"k.	c #191331",
"l.	c #42357B",
"m.	c #B3ACCB",
"n.	c #FAF9FC",
"o.	c #B7B1CC",
"p.	c #42367B",
"q.	c #302B4C",
"r.	c #191432",
"s.	c #372B6E",
"t.	c #635792",
"u.	c #A69FBF",
"v.	c #BAB5CF",
"w.	c #665B94",
"x.	c #392D72",
"y.	c #453D67",
"z.	c #080611",
"A.	c #1D173A",
"B.	c #2A2055",
"C.	c #34276D",
"D.	c #2B2257",
"E.	c #3A335A",
"F.	c #131313",
"G.	c #6F6F6F",
"H.	c #111111",
"I.	c #323232",
"J.	c #242424",
"K.	c #1C1C1C",
"L.	c #070707",
"M.	c #545454",
"N.	c #343434",
"O.	c #454545",
"P.	c #1E1E1E",
"Q.	c #606060",
"R.	c #202020",
"S.	c #383838",
"                                                                                                ",
"                                                                                                ",
"                                                                                                ",
"                                                                                                ",
"                                                                        . + @                   ",
"                                                                  # $ % & & * =                 ",
"                                              - ; >             , ' % % & & ) % !               ",
"                                            ~ ) ) ) {         ] * ) ) ) & & ) % ^               ",
"                                            / & & & (         _ * & & & & & ) * :               ",
"                              < [ }       | ) & & & (       1 * * & & & & & ) 2                 ",
"                              3 & & 4     < ) & & & 5       6 & & & & & * ) * 7                 ",
"                            8 & & & 9       % & & ) 0       a & & & & & * ) b                   ",
"                            ] ) & & c       d & & c         ' & & & & & * e                     ",
"                              / * % 2       f % * @         = & & ) % * >                       ",
"                    e g       5 ) * e         h ,           i & & ) * [                         ",
"                  [ ) & $       c ) }                         j 3 4 8                           ",
"                  k & & &         b                                                             ",
"                  l & & & !                                                                     ",
"                    _ * * m               n 0 o p ) & & & ) c 5 @                               ",
"                    ! a * :           q r s t u v w x y & ) ) ) * g                             ",
"                        z         . 2 A B C D E D F G H _ & & & & * o                           ",
"                              @ = * I J K L M N N O P Q R ) & & & ) c                           ",
"                            S ' % T U V W X 8 Y N N Z `  ...& & & & '                           ",
"                          +.% ) & @.#.O N $.& ' n %.N &.*.=.& & & * >                           ",
"                          d * & & -.;.N N >.& & & = ,.'.).!.& & & * 8                           ",
"                        ~.* ) & & {.].N N >.^.& & & 6 /.(._.) ) ) j                             ",
"                        > & & & & _.:.N N >.& & a <.[.N }.|.& / [                               ",
"                        % & & & & 1.2.3.N >.* 4.5.N N 6.7.8.) 9.                                ",
"                        ) & & & & 0.a.b.c.d.e.f.N N g.h.i.j.S                                   ",
"                        & & & & & & k.l.m.n.N N N W o.p.q.                                      ",
"                        % & & & & & & r.s.t.u.v.u.w.x.y.                                        ",
"                        > & & & & & & & z.A.B.C.D.E.                                            ",
"                        i & & & & & & & & & & F.G.                                              ",
"                          ' ) & & & & & ) ) H.              0 I.J.5 i                           ",
"                          K.% & & & & & ) ) @             2 * * ) * * [                         ",
"                            L.& & & & & ) )             M.) ) ) & * % k                         ",
"                            N.) ) ) & & & * J.          ^ * ) & & ) * q                         ",
"                              { * ) & & ) ) * O.        9 & ) & & ) _                           ",
"                                k * * ) ) ) ) ) P.- ^ ( ) ) ) * * * I.                          ",
"                                  > * / ) & & ) ) % ) ) & & & * % o                             ",
"                                    l / ) & & ) ) ) ) ) & & ) % {                               ",
"                                      Q.g * * ) ) * ) ) * ) % j                                 ",
"                                          7 R.c * ) * ) 3 J.                                    ",
"                                                < S.R.l                                         ",
"                                                                                                ",
"                                                                                                ",
"                                                                                                ",
"                                                                                                "};
