/* XPM */
static char * media_skip_forward_xpm[] = {
"16 16 32 1",
" 	c None",
".	c #555753",
"+	c #C7C8C6",
"@	c #CBCCCA",
"#	c #CCCDCB",
"$	c #C6C7C5",
"%	c #CACBC9",
"&	c #A7A9A5",
"*	c #D1D2D0",
"=	c #A5A7A3",
"-	c #D4D5D3",
";	c #989A96",
">	c #A9ABA7",
",	c #D7D8D6",
"'	c #9C9E9A",
")	c #AEB0AC",
"!	c #CDCECC",
"~	c #D9DAD8",
"{	c #BBBCBA",
"]	c #C3C4C2",
"^	c #CECFCD",
"/	c #B3B4B2",
"(	c #C5C6C4",
"_	c #D0D1CF",
":	c #B7B8B6",
"<	c #B9BAB8",
"[	c #DBDCDA",
"}	c #D3D4D2",
"|	c #BDBEBC",
"1	c #C1C2C0",
"2	c #DADBD9",
"3	c #DDDEDC",
"                ",
"  .      .....  ",
"  ..     .+@#.  ",
"  .$.    .%&*.  ",
"  .$$.   .%=-.  ",
"  .$;$.  .@>,.  ",
"  .$')$. .!)~.  ",
"  .$&{]^..!)~.  ",
"  .$/(_. .!)~.  ",
"  .$:,.  .*<[.  ",
"  .$$.   .}|[.  ",
"  .$.    .}1[.  ",
"  ..     .-23.  ",
"  .      .....  ",
"                ",
"                "};
