/* XPM */
static char * media_seek_forward_xpm[] = {
"16 16 17 1",
" 	c None",
".	c #555753",
"+	c #C6C7C5",
"@	c #989A96",
"#	c #9C9E9A",
"$	c #AEB0AC",
"%	c #A7A9A5",
"&	c #BBBCBA",
"*	c #C3C4C2",
"=	c #CECFCD",
"-	c #474945",
";	c #B3B4B2",
">	c #C5C6C4",
",	c #D0D1CF",
"'	c #ACACAC",
")	c #B7B8B6",
"!	c #D7D8D6",
"                ",
" .      .       ",
" ..     ..      ",
" .+.    .+.     ",
" .++.   .++.    ",
" .+@+.  .+@+.   ",
" .+#$+. .+#$+.  ",
" .+%&*=-.+%&*=. ",
" .+;>,.'.+;>,.  ",
" .+)!.  .+)!.   ",
" .++.   .++.    ",
" .+.    .+.     ",
" ..     ..      ",
" .      .       ",
"                ",
"                "};
