/* XPM */
static char * media_playback_stop_xpm[] = {
"16 16 17 1",
" 	c None",
".	c #555753",
"+	c #DDDEDC",
"@	c #A7A9A5",
"#	c #A4A6A2",
"$	c #A5A7A3",
"%	c #B4B5B3",
"&	c #A9ABA7",
"*	c #BFC0BE",
"=	c #AEB0AC",
"-	c #C9CAC8",
";	c #B9BAB8",
">	c #D3D4D2",
",	c #BDBEBC",
"'	c #D5D6D4",
")	c #C1C2C0",
"!	c #D8D9D7",
"                ",
" .............  ",
" .+++++++++++.  ",
" .+@########+.  ",
" .+$%%%%%%%%+.  ",
" .+&********+.  ",
" .+=--------+.  ",
" .+=--------+.  ",
" .+;>>>>>>>>+.  ",
" .+;>>>>>>>>+.  ",
" .+,''''''''+.  ",
" .+)!!!!!!!!+.  ",
" .+++++++++++.  ",
" .............  ",
"                ",
"                "};
