/* XPM */
static char * media_seek_backward_xpm[] = {
"16 16 17 1",
" 	c None",
".	c #555753",
"+	c #C6C7C5",
"@	c #989A96",
"#	c #AEB0AC",
"$	c #9C9E9A",
"%	c #CECFCD",
"&	c #C3C4C2",
"*	c #BBBCBA",
"=	c #A7A9A5",
"-	c #70726E",
";	c #D0D1CF",
">	c #C5C6C4",
",	c #B3B4B2",
"'	c #FFFFFF",
")	c #D7D8D6",
"!	c #B7B8B6",
"                ",
"       .      . ",
"      ..     .. ",
"     .+.    .+. ",
"    .++.   .++. ",
"   .+@+.  .+@+. ",
"  .+#$+. .+#$+. ",
" .%&*=+.-%&*=+. ",
"  .;>,+.'.;>,+. ",
"   .)!+.  .)!+. ",
"    .++.   .++. ",
"     .+.    .+. ",
"      ..     .. ",
"       .      . ",
"                ",
"                "};
