/* XPM */
static char * media_playback_pause_xpm[] = {
"16 16 22 1",
" 	c None",
".	c #555753",
"+	c #C7C8C6",
"@	c #CBCCCA",
"#	c #CCCDCB",
"$	c #CACBC9",
"%	c #A7A9A5",
"&	c #D1D2D0",
"*	c #A5A7A3",
"=	c #D4D5D3",
"-	c #A9ABA7",
";	c #D7D8D6",
">	c #CDCECC",
",	c #AEB0AC",
"'	c #D9DAD8",
")	c #B9BAB8",
"!	c #DBDCDA",
"~	c #D3D4D2",
"{	c #BDBEBC",
"]	c #C1C2C0",
"^	c #DADBD9",
"/	c #DDDEDC",
"                ",
"  ..... .....   ",
"  .+@#. .+@#.   ",
"  .$%&. .$%&.   ",
"  .$*=. .$*=.   ",
"  .@-;. .@-;.   ",
"  .>,'. .>,'.   ",
"  .>,'. .>,'.   ",
"  .>,'. .>,'.   ",
"  .&)!. .&)!.   ",
"  .~{!. .~{!.   ",
"  .~]!. .~]!.   ",
"  .=^/. .=^/.   ",
"  ..... .....   ",
"                ",
"                "};
