/* XPM */
static char * view_fullscreen_xpm[] = {
"16 16 25 1",
" 	c None",
".	c #234D8A",
"+	c #27518D",
"@	c #204A87",
"#	c #909090",
"$	c #8D8D8D",
"%	c #BECADC",
"&	c #BCC8DB",
"*	c #214B88",
"=	c #A4B5CD",
"-	c #4C6E9E",
";	c #A1B3CC",
">	c #224C88",
",	c #224C89",
"'	c #F7F7F7",
")	c #F0F0F0",
"!	c #224D89",
"~	c #234D89",
"{	c #F3F3F3",
"]	c #E9E9E9",
"^	c #244E8A",
"/	c #EFEFEF",
"(	c #214B87",
"_	c #234E8A",
":	c #254F8B",
"                ",
"        .       ",
"       .+       ",
"      @@@@      ",
"                ",
"    #$$$$$$#    ",
"  @ $%&&&&&$    ",
" .* $=----;$ >@ ",
" ,> $'))))'$ >!~",
"  * ${]]]]{$ @^ ",
"    $//////$    ",
"    #$$$$$$#    ",
"                ",
"      @@@(      ",
"       _:       ",
"        ~       "};
