/* XPM */
static char *gnome_mplayer_xpm[] = {
/* columns rows colors chars-per-pixel */
"51 48 193 2",
"   c #333434",
".  c #323538",
"X  c #43770D",
"o  c #45790F",
"O  c #467A11",
"+  c #4A7D16",
"@  c #4D7E18",
"#  c #333C47",
"$  c #333F4F",
"%  c #354151",
"&  c #394553",
"*  c #3D4957",
"=  c #3F4B58",
"-  c #464644",
";  c #474845",
":  c #4C4D4B",
">  c #4F514D",
",  c #51534F",
"<  c #434B57",
"1  c #424D5A",
"2  c #48545F",
"3  c #545454",
"4  c #565854",
"5  c #595B57",
"6  c #5E5E5D",
"7  c #5F615D",
"8  c #62645F",
"9  c #465565",
"0  c #485665",
"q  c #4A5867",
"w  c #42566E",
"e  c #47596F",
"r  c #4F5C6C",
"t  c #515A63",
"y  c #495D73",
"u  c #59646F",
"i  c #57697C",
"p  c #646564",
"a  c #676965",
"s  c #696B67",
"d  c #6C6D6C",
"f  c #6F716D",
"g  c #71736F",
"h  c #717271",
"j  c #767975",
"k  c #797B76",
"l  c #7B7C7B",
"z  c #4E801A",
"x  c #53841E",
"c  c #568620",
"v  c #598721",
"b  c #5A8924",
"n  c #5D8930",
"m  c #6A9634",
"M  c #6C9837",
"N  c #6F993A",
"B  c #749B33",
"V  c #729B3E",
"C  c #789F38",
"Z  c #7BA23D",
"A  c #759E42",
"S  c #7C9B5B",
"D  c #7CA344",
"F  c #7F817D",
"G  c #82A837",
"H  c #85AB3B",
"J  c #89AF3E",
"K  c #84A943",
"L  c #89AD42",
"P  c #86AB4A",
"I  c #8BAF4B",
"U  c #8CB241",
"Y  c #8EB249",
"T  c #91B646",
"R  c #91B44D",
"E  c #95BB4A",
"W  c #99BE4E",
"Q  c #8CB052",
"!  c #96B655",
"~  c #96B951",
"^  c #9ABE54",
"/  c #9BBC5D",
"(  c #809D60",
")  c #81827F",
"_  c #9EBE62",
"`  c #8EA972",
"'  c #91AD75",
"]  c #9CC152",
"[  c #A2C45C",
"{  c #A2C165",
"}  c #A4C36B",
"|  c #AAC76E",
" . c #A5C470",
".. c #AAC674",
"X. c #ADCA73",
"o. c #ADC97B",
"O. c #B2CE79",
"+. c #B5D17E",
"@. c #345784",
"#. c #3B669C",
"$. c #3565A4",
"%. c #3C6CA9",
"&. c #44668F",
"*. c #4D6D93",
"=. c #436898",
"-. c #4C6F99",
";. c #5F7993",
":. c #607085",
">. c #747D83",
",. c #4A71A2",
"<. c #4272AE",
"1. c #537AA8",
"2. c #4675B0",
"3. c #4B7AB4",
"4. c #7C8B97",
"5. c #5E85B1",
"6. c #5786BC",
"7. c #5A88BE",
"8. c #6586AC",
"9. c #778EA4",
"0. c #638AB5",
"q. c #698DB4",
"w. c #628CBD",
"e. c #6B90B8",
"r. c #7D99B8",
"t. c #5E8CC1",
"y. c #618FC3",
"u. c #6593C6",
"i. c #6996C9",
"p. c #6D9ACB",
"a. c #729FCF",
"s. c #7EA1CA",
"d. c #838483",
"f. c #878884",
"g. c #888A85",
"h. c #818888",
"j. c #8D8E8C",
"k. c #91918E",
"l. c #848D92",
"z. c #8E9090",
"x. c #949492",
"c. c #969894",
"v. c #999A96",
"b. c #9B9C9A",
"n. c #9CAF88",
"m. c #9EA09C",
"M. c #A4AF97",
"N. c #A1A19F",
"B. c #A4B097",
"V. c #A7B29A",
"C. c #AAB59C",
"Z. c #A4A5A3",
"A. c #AAABA7",
"S. c #ADAEAB",
"D. c #AEBAA1",
"F. c #AFB0AD",
"G. c #B2BEA6",
"H. c #B2B3AF",
"J. c #B5B6B3",
"K. c #B7B8B4",
"L. c #BABAB7",
"P. c #BEBEBB",
"I. c #B3CE83",
"U. c #B9D383",
"Y. c #BAD38A",
"T. c #B7C3A9",
"R. c #B9C5AB",
"E. c #BCC2B5",
"W. c #BFC3BB",
"Q. c #C2DA92",
"!. c #C2C2BE",
"~. c #C4CBBD",
"^. c #97B1CD",
"/. c #80A9D4",
"(. c #C6C6C3",
"). c #C7C8C6",
"_. c #CACAC7",
"`. c #CDCDCB",
"'. c #CFD1CB",
"]. c #D1D2CE",
"[. c #D4D5D3",
"{. c #D7D9D3",
"}. c #D9DAD6",
"|. c #DDDDDB",
" X c #DFE0DC",
".X c #E0E1DF",
"XX c #E4E4E2",
"oX c #E9E9E7",
"OX c #EEEEEC",
"+X c #F0F0EE",
"@X c #F4F4F3",
"#X c #F8F8F7",
"$X c None",
/* pixels */
"$X$X$X                                                                    $X$X$X$X$X$X$X$X$X$X$X$X$X$X",
"$X$X$X  6 6 6 6 : t ^.^.^.^.^.^.^.^.^.^.^.^.^.^.^.^.^.^.^.^.u : p p 6 6   $X$X$X$X$X$X$X$X$X$X$X$X$X$X",
"$X$X$X  p l l d : 0 /./././././././././././././././././././.r : h ) l d . $X$X$X$X$X$X$X$X$X$X$X$X$X$X",
"$X$X$X  p |.+Xb.3 1 a.a.p.a.a.a.a.a.a.a.a.a.a.a.a.a.a.a.a.a.0 3 b.OXXXd   $X$X$X$X$X$X$X$X$X$X$X$X$X$X",
"$X$X$X  p S.H.h.3 1 a.a.a.a.a.a.a.a.a.a.a.a.a.a.a.a.a.a.a.a.0 > f.J.H.d . $X$X$X$X$X$X$X$X$X$X$X$X$X$X",
"$X$X$X  a a p d 3 1 a.a.a.a.a.a.a.a.a.a.a.a.a.a.a.a.a.a.a.a.0 > d f h d - $X$X$X$X$X$X$X$X$X$X$X$X$X$X",
"$X$X$X  p P._.z.3 1 a.a.a.a.a.a.a.a.a.a.a.a.a.a.a.a.a.a.a.a.0 3 j._.(.h   $X$X$X$X$X$X$X$X$X$X$X$X$X$X",
"$X$X$X  d |.OXN.3 1 a.a.a.a.a.a.a.a.a.a.a.a.a.a.a.a.a.a.a.a.0 3 b.OXoXh   $X$X$X$X$X$X$X$X$X$X$X$X$X$X",
"$X$X$X  d p d d : < a.a.a.a.a.a.a.a.a.a.a.a.a.a.a.a.a.a.a.a.0 3 h h h h   $X$X$X$X$X$X$X$X$X$X$X$X$X$X",
"$X$X$X  p j.z.>.3 < p.p.p.a.p.p.p.p.p.p.p.p.p.p.p.p.p.p.p.p.0 3 l x.k.h . $X$X$X$X$X$X$X$X$X$X$X$X$X$X",
"$X$X$X  p .XOXN.3 1 p.p.p.i.i.p.p.p.i.p.i.p.i.p.p.p.i.p.i.i.9 : b.+XoXh . $X$X$X$X$X$X$X$X$X$X$X$X$X$X",
"$X$X$X  d b.Z.d.3 < i.i.i.i.i.i.i.i.i.i.i.i.i.i.i.i.i.i.i.i.0 3 d.A.Z.h   $X$X$X$X$X$X$X$X$X$X$X$X$X$X",
"$X$X$X  s d d d 3 1 u.u.i.u.i.u.u.u.u.u.u.u.u.u.u.u.u.u.i.i.0 6 k l l k ; $X$X$X$X$X$X$X$X$X$X$X$X$X$X",
"$X$X$X  d `.}.b.3 < u.y.y.u.u.y.u.u.u.u.y.y.u.u.u.u.u.q.9.l.g.j.b.A.Z.c.g.g.j.$X$X$X$X$X$X$X$X$X$X$X$X",
"$X$X$X  s `.}.b.3 * y.y.y.y.y.y.y.y.y.y.y.y.y.y.y.q.l.j.J.|.@X#X#X#X#X#X#XOX].N.f.h.$X$X$X$X$X$X$X$X$X",
"$X$X$X  d d d d 3 * t.y.y.t.y.t.t.t.y.y.y.y.y.y.l.h.).@X@X@X+XOXOXOXOXOXOX+X@X#XoXA.f.$X$X$X$X$X$X$X$X",
"$X$X$X  d N.Z.d.3 * t.t.t.y.t.w.t.y.y.t.y.y.8.h.F.+X#X+XOXOXOXOXOXOXOXOXOXOX+XOX@X#XXXj.f.$X$X$X$X$X$X",
"$X$X$X  d |.+XZ.3 * 6.t.3.y.3.y.t.3.3.t.y.1.d.(.#X+XOXOXOXOXOXOXOXOXOXOXOXOXOXOXOXOX@XOXb.f.$X$X$X$X$X",
"$X$X$X. d j.x.l 3 < 6.6.y.3.3.y.y.3.t.t.0.) [.#X+XXX}.|.OXOXOXOXOXOXOXOXOXOXOXOXOXOXOX@X@XZ.) $X$X$X$X",
"$X$X$X  d d d h 3 $ w e e e w q w w w w l (.#XOXoX`.n.!.]..XOXOXOXOXOXOXOXOXOXOXOXOXOXOX+X@Xx.) $X$X$X",
"$X$X$X. d |.+XZ.3 < :.:.:.:.:.i :.:.i l S.@X+XOXXXD.o O ( !.`..XOXOXOXOXOXOXOXOXOXOXOXOXOX@XoXd.$X$X$X",
"$X$X$X  d !._.x.3 q /././././.a./././.l OX+XOXOXXXD.c Y.A + S !.]..XOXOXOXOXOXOXOXOXOXOXOXOX@X).F $X$X",
"$X$X$X  h d h h 3 & 2.3.3.3.3.3.2.1.>.!.@XOXOXOXXXC.x Q.U.Y.A O S W.]..XOXOXOXOXOXOXOXOXOXOX@X@Xh.$X$X",
"$X$X$X  d S.J.k.3 & 3.3.3.3.3.3.2.1.l @X+XOXOXOXXXD.x Y.] [ +.I.A O S E.'. XOXOXOXOXOXOXOXOXOX@X`.F $X",
"$X$X$X  h |.OXZ.6 $ 3.3.2.3.3.2.2.;.Z.@XOXOXOXOX.XD.c U.^ W ] [ O.o.A O S L.'.|.oX+X+X+XOXOXOX+XOXj $X",
"$X$X$X  h ) ) l 3 & 2.2.2.2.2.2.<.>.[.+XOXOX+XOX.XD.c O.W W W W W [ O...N O S K.]..XoXoXOXOXOXOX@Xx.$X",
"$X$X$X  d ) ) l 3 & <.<.<.<.<.2.2.g OX+XOXOXOXOX.XD.x O.E E E E E E E ] X. .M O S !.].|.oX+XOXOX+X!.j ",
"$X$X$X  d .XOXZ.3 $ <.<.<.<.<.%.,.j +XoXoXoXoXoX|.C.@ ..E E E E E E E E E ] X.} m o S ~.[..XoXoX+X`.k ",
"$X$X$X  h H.L.j.3 $ <.<.%.%.<.%.-.d.+XXXXXXXXXXX}.V.z | T T T T T T E E T T T ^ | { m o S ~..XXXoX[.j ",
"$X$X$X  d h h h 5 $ %.%.%.%.%.%.*.k.OX.X.X.X.X.X[.B.z } T T T T T T T U T T T T J ] | / x o {..XXX}.f ",
"$X$X$X  h P.`.x.5 $ %.%.%.%.%.%.*.h.oX|.|.|.|.|.].M.z { U U U U U U U U U U U U ~ { Q b O ' XX.XXX[.g ",
"$X$X$X  h .XOXZ.5 $ $.$.$.$.$.$.=.j XX}.|.}.}.}.`.M.x / U U U U U U U J U U R _ I b + '  XoX.X}..X(.g ",
"$X$X$X  h h h h 3 $ $.$.$.$.$.$.#.s .X[.[.[.[.[.'.B.@ / J J J J J J J J Y / P c @ '  XXX.X}.{.[.|.J.g ",
"$X$X$X  d z.x.l 6 $ $.$.$.$.$.$.$.s ).}.].[.].].`.V.@ ! H H J H H J L ! K v + ' }.XX.X[.].].].].|.c.s ",
"$X$X$X  d .XOXZ.3 $ $.$.$.$.$.$.$.i N.{.`.`.`.'._.C.@ Q G H H H L R K c + ' {.XX|.[.`.`.`.`.'.'.}.d $X",
"$X$X$X  h N.A.d.3 $ $.$.$.$.$.$.$.&.j }.`.)._._._.D.@ Y G G H I C c + ' {.|.|.]._._._._._._._.].P.s $X",
"$X$X$X  f h h h 3 $ $.$.$.$.$.$.$.$.p L.`.(.(.(._.T.@ K G L C x + ' ].|.}.`.(.(.(.(.(.).).(.).[.g.a $X",
"$X$X$X  6 6 8 8 : # @.@.@.@.@.@.@.@.y h ].(.!.!.).T.@ H B x + ` ].}.}.`.!.(.!.!.!.!.!.!.!.!._.L.a $X$X",
"$X$X$X          . . . . . . . . . . . 7 A._.P.P.).T.O x + ` '.}.[.).!.!.P.P.P.P.P.P.P.P.P.!.`.k 8 $X$X",
"$X$X$X$X$X$X$X$X$X$X$X$X$X$X$X$X$X$X$X$Xp K.(.L.!.~.n ` '.[.`.!.L.L.K.K.L.L.L.L.L.L.L.L.L._.k.8 $X$X$X",
"$X$X$X$X$X$X$X$X$X$X$X$X$X$X$X$X$X$X$X$X4 a L.W.K.'.].`.(.L.J.J.K.K.K.K.K.K.J.J.K.K.J.K.!.N.7 $X$X$X$X",
"$X$X$X$X$X$X$X$X$X$X$X$X$X$X$X$X$X$X$X$X$X5 s J.P.J.H.H.H.H.H.H.H.H.H.H.H.H.H.H.H.H.J.!.b.7 $X$X$X$X$X",
"$X$X$X$X$X$X$X$X$X$X$X$X$X$X$X$X$X$X$X$X$X$X3 7 N.L.H.H.F.F.F.F.S.S.H.A.F.S.F.S.H.K.L.) 6 $X$X$X$X$X$X",
"$X$X$X$X$X$X$X$X$X$X$X$X$X$X$X$X$X$X$X$X$X$X$X- 5 k F.H.H.A.A.A.A.A.A.A.A.A.S.H.K.b.p 5 $X$X$X$X$X$X$X",
"$X$X$X$X$X$X$X$X$X$X$X$X$X$X$X$X$X$X$X$X$X$X$X$X$X4 5 F m.H.H.F.S.S.S.S.H.H.S.x.s 5 ; $X$X$X$X$X$X$X$X",
"$X$X$X$X$X$X$X$X$X$X$X$X$X$X$X$X$X$X$X$X$X$X$X$X$X$X$X, 4 5 h d.j.k.k.g.l s 4 4 : $X$X$X$X$X$X$X$X$X$X",
"$X$X$X$X$X$X$X$X$X$X$X$X$X$X$X$X$X$X$X$X$X$X$X$X$X$X$X$X$X$X: 3 4 5 5 , , $X$X$X$X$X$X$X$X$X$X$X$X$X$X",
"$X$X$X$X$X$X$X$X$X$X$X$X$X$X$X$X$X$X$X$X$X$X$X$X$X$X$X$X$X$X$X$X$X$X$X$X$X$X$X$X$X$X$X$X$X$X$X$X$X$X$X"
};
