/* XPM */
static char * media_skip_backward_xpm[] = {
"16 16 35 1",
" 	c None",
".	c #555753",
"+	c #FFFFFF",
"@	c #C7C8C6",
"#	c #CBCCCA",
"$	c #CCCDCB",
"%	c #CACBC9",
"&	c #A7A9A5",
"*	c #D1D2D0",
"=	c #C6C7C5",
"-	c #A5A7A3",
";	c #D4D5D3",
">	c #A9ABA7",
",	c #D7D8D6",
"'	c #989A96",
")	c #CDCECC",
"!	c #AEB0AC",
"~	c #D9DAD8",
"{	c #B6B6B6",
"]	c #9C9E9A",
"^	c #70726E",
"/	c #CECFCD",
"(	c #C3C4C2",
"_	c #BBBCBA",
":	c #D0D1CF",
"<	c #C5C6C4",
"[	c #B3B4B2",
"}	c #B9BAB8",
"|	c #DBDCDA",
"1	c #B7B8B6",
"2	c #D3D4D2",
"3	c #BDBEBC",
"4	c #C1C2C0",
"5	c #DADBD9",
"6	c #DDDEDC",
"                ",
"  .....+     .  ",
"  .@#$.+    ..  ",
"  .%&*.+   .=.  ",
"  .%-;.+  .==.  ",
"  .#>,.+ .='=.  ",
"  .)!~.{.=!]=.  ",
"  .)!~.^/(_&=.  ",
"  .)!~.+.:<[=.  ",
"  .*}|.+ .,1=.  ",
"  .23|.+  .==.  ",
"  .24|.+   .=.  ",
"  .;56.+    ..  ",
"  .....+     .  ",
"                ",
"                "};
